<mxfile host="Electron" agent="Mozilla/5.0 (X11; Linux x86_64) AppleWebKit/537.36 (KHTML, like Gecko) draw.io/26.1.1 Chrome/132.0.6834.210 Electron/34.3.2 Safari/537.36" version="26.1.1">
  <diagram name="Page-1" id="Sx1y8OctJ_QJsXsDePiW">
    <mxGraphModel dx="1687" dy="986" grid="1" gridSize="10" guides="1" tooltips="1" connect="1" arrows="1" fold="1" page="1" pageScale="1" pageWidth="850" pageHeight="1100" math="0" shadow="0">
      <root>
        <mxCell id="0" />
        <mxCell id="1" parent="0" />
        <mxCell id="Kuy65lUHNoXA_lYycIl7-234" value="" style="whiteSpace=wrap;html=1;fillColor=#FF8C00;dashed=1;opacity=50;fontFamily=Garamond;strokeColor=none;fontSize=14;" parent="1" vertex="1">
          <mxGeometry x="260" y="80" width="280" height="1000" as="geometry" />
        </mxCell>
        <mxCell id="Kuy65lUHNoXA_lYycIl7-235" value="" style="whiteSpace=wrap;html=1;fillColor=#FF8C00;dashed=1;opacity=50;fontFamily=Garamond;strokeColor=none;fontSize=14;" parent="1" vertex="1">
          <mxGeometry x="600" y="80" width="400" height="1000" as="geometry" />
        </mxCell>
        <mxCell id="Kuy65lUHNoXA_lYycIl7-17" value="Backbone" style="rounded=0;whiteSpace=wrap;html=1;fontColor=#000000;fillColor=#FF8C00;fontFamily=Garamond;fontSize=14;" parent="1" vertex="1">
          <mxGeometry x="40" y="40" width="160" height="40" as="geometry" />
        </mxCell>
        <mxCell id="Kuy65lUHNoXA_lYycIl7-233" value="" style="whiteSpace=wrap;html=1;fillColor=#FF8C00;dashed=1;opacity=50;fontFamily=Garamond;strokeColor=none;fontSize=14;" parent="1" vertex="1">
          <mxGeometry x="40" y="80" width="160" height="1000" as="geometry" />
        </mxCell>
        <mxCell id="Kuy65lUHNoXA_lYycIl7-70" value="" style="edgeStyle=orthogonalEdgeStyle;rounded=0;orthogonalLoop=1;jettySize=auto;html=1;fontColor=#000000;fontFamily=Garamond;fontSize=14;" parent="1" source="Kuy65lUHNoXA_lYycIl7-16" target="Kuy65lUHNoXA_lYycIl7-21" edge="1">
          <mxGeometry relative="1" as="geometry" />
        </mxCell>
        <mxCell id="Kuy65lUHNoXA_lYycIl7-16" value="Input" style="rounded=0;whiteSpace=wrap;html=1;fontColor=#000000;fillColor=light-dark(#e6b147, #9a5800);strokeColor=#BD7000;fontFamily=Garamond;fontSize=14;" parent="1" vertex="1">
          <mxGeometry x="80" y="120" width="80" height="40" as="geometry" />
        </mxCell>
        <mxCell id="Kuy65lUHNoXA_lYycIl7-18" value="Head" style="rounded=0;whiteSpace=wrap;html=1;fontColor=#000000;fillColor=#FF8C00;fontFamily=Garamond;fontSize=14;" parent="1" vertex="1">
          <mxGeometry x="260" y="40" width="280" height="40" as="geometry" />
        </mxCell>
        <mxCell id="Kuy65lUHNoXA_lYycIl7-19" value="Detect" style="rounded=0;whiteSpace=wrap;html=1;fillColor=#FF8C00;fontFamily=Garamond;fontSize=14;" parent="1" vertex="1">
          <mxGeometry x="600" y="40" width="400" height="40" as="geometry" />
        </mxCell>
        <mxCell id="Kuy65lUHNoXA_lYycIl7-31" value="" style="edgeStyle=orthogonalEdgeStyle;rounded=0;orthogonalLoop=1;jettySize=auto;html=1;fontColor=#000000;fontFamily=Garamond;fontSize=14;" parent="1" source="Kuy65lUHNoXA_lYycIl7-21" target="Kuy65lUHNoXA_lYycIl7-22" edge="1">
          <mxGeometry relative="1" as="geometry" />
        </mxCell>
        <mxCell id="Kuy65lUHNoXA_lYycIl7-21" value="Conv" style="whiteSpace=wrap;html=1;fillColor=#8BE1FF;fontColor=#000000;fontFamily=Garamond;fontSize=14;" parent="1" vertex="1">
          <mxGeometry x="80" y="200" width="80" height="40" as="geometry" />
        </mxCell>
        <mxCell id="Kuy65lUHNoXA_lYycIl7-32" value="" style="edgeStyle=orthogonalEdgeStyle;rounded=0;orthogonalLoop=1;jettySize=auto;html=1;fontColor=#000000;fontFamily=Garamond;fontSize=14;" parent="1" source="Kuy65lUHNoXA_lYycIl7-22" target="Kuy65lUHNoXA_lYycIl7-23" edge="1">
          <mxGeometry relative="1" as="geometry" />
        </mxCell>
        <mxCell id="Kuy65lUHNoXA_lYycIl7-22" value="Conv" style="whiteSpace=wrap;html=1;fillColor=#8BE1FF;fontColor=#000000;fontFamily=Garamond;fontSize=14;" parent="1" vertex="1">
          <mxGeometry x="80" y="280" width="80" height="40" as="geometry" />
        </mxCell>
        <mxCell id="Kuy65lUHNoXA_lYycIl7-33" style="edgeStyle=orthogonalEdgeStyle;rounded=0;orthogonalLoop=1;jettySize=auto;html=1;fontColor=#000000;fontFamily=Garamond;fontSize=14;" parent="1" source="Kuy65lUHNoXA_lYycIl7-23" target="Kuy65lUHNoXA_lYycIl7-24" edge="1">
          <mxGeometry relative="1" as="geometry" />
        </mxCell>
        <mxCell id="Kuy65lUHNoXA_lYycIl7-23" value="C2f" style="whiteSpace=wrap;html=1;fillColor=#FFE897;fontColor=#000000;fontFamily=Garamond;fontSize=14;" parent="1" vertex="1">
          <mxGeometry x="80" y="360" width="80" height="40" as="geometry" />
        </mxCell>
        <mxCell id="Kuy65lUHNoXA_lYycIl7-34" value="" style="edgeStyle=orthogonalEdgeStyle;rounded=0;orthogonalLoop=1;jettySize=auto;html=1;fontColor=#000000;fontFamily=Garamond;fontSize=14;" parent="1" source="Kuy65lUHNoXA_lYycIl7-24" target="Kuy65lUHNoXA_lYycIl7-25" edge="1">
          <mxGeometry relative="1" as="geometry" />
        </mxCell>
        <mxCell id="Kuy65lUHNoXA_lYycIl7-24" value="Conv" style="whiteSpace=wrap;html=1;fillColor=#8BE1FF;fontColor=#000000;fontFamily=Garamond;fontSize=14;" parent="1" vertex="1">
          <mxGeometry x="80" y="440" width="80" height="40" as="geometry" />
        </mxCell>
        <mxCell id="Kuy65lUHNoXA_lYycIl7-37" style="edgeStyle=orthogonalEdgeStyle;rounded=0;orthogonalLoop=1;jettySize=auto;html=1;exitX=0.5;exitY=1;exitDx=0;exitDy=0;fontColor=#000000;fontFamily=Garamond;fontSize=14;" parent="1" source="Kuy65lUHNoXA_lYycIl7-25" target="Kuy65lUHNoXA_lYycIl7-26" edge="1">
          <mxGeometry relative="1" as="geometry" />
        </mxCell>
        <mxCell id="Kuy65lUHNoXA_lYycIl7-65" style="edgeStyle=orthogonalEdgeStyle;rounded=0;orthogonalLoop=1;jettySize=auto;html=1;entryX=0;entryY=0.5;entryDx=0;entryDy=0;fontColor=#000000;fontFamily=Garamond;fontSize=14;" parent="1" source="Kuy65lUHNoXA_lYycIl7-25" target="Kuy65lUHNoXA_lYycIl7-41" edge="1">
          <mxGeometry relative="1" as="geometry" />
        </mxCell>
        <mxCell id="Kuy65lUHNoXA_lYycIl7-25" value="C2f" style="whiteSpace=wrap;html=1;fillColor=#FFE897;fontColor=#000000;fontFamily=Garamond;fontSize=14;" parent="1" vertex="1">
          <mxGeometry x="80" y="520" width="80" height="40" as="geometry" />
        </mxCell>
        <mxCell id="Kuy65lUHNoXA_lYycIl7-35" value="" style="edgeStyle=orthogonalEdgeStyle;rounded=0;orthogonalLoop=1;jettySize=auto;html=1;fontColor=#000000;fontFamily=Garamond;fontSize=14;" parent="1" source="Kuy65lUHNoXA_lYycIl7-26" target="Kuy65lUHNoXA_lYycIl7-27" edge="1">
          <mxGeometry relative="1" as="geometry" />
        </mxCell>
        <mxCell id="Kuy65lUHNoXA_lYycIl7-26" value="Conv" style="whiteSpace=wrap;html=1;fillColor=#8BE1FF;fontColor=#000000;fontFamily=Garamond;fontSize=14;" parent="1" vertex="1">
          <mxGeometry x="80" y="600" width="80" height="40" as="geometry" />
        </mxCell>
        <mxCell id="Kuy65lUHNoXA_lYycIl7-38" style="edgeStyle=orthogonalEdgeStyle;rounded=0;orthogonalLoop=1;jettySize=auto;html=1;exitX=0.5;exitY=1;exitDx=0;exitDy=0;fontColor=#000000;fontFamily=Garamond;fontSize=14;" parent="1" source="Kuy65lUHNoXA_lYycIl7-27" target="Kuy65lUHNoXA_lYycIl7-28" edge="1">
          <mxGeometry relative="1" as="geometry" />
        </mxCell>
        <mxCell id="Kuy65lUHNoXA_lYycIl7-64" style="edgeStyle=orthogonalEdgeStyle;rounded=0;orthogonalLoop=1;jettySize=auto;html=1;entryX=0;entryY=0.5;entryDx=0;entryDy=0;fontColor=#000000;fontFamily=Garamond;fontSize=14;" parent="1" source="Kuy65lUHNoXA_lYycIl7-27" target="Kuy65lUHNoXA_lYycIl7-44" edge="1">
          <mxGeometry relative="1" as="geometry" />
        </mxCell>
        <mxCell id="Kuy65lUHNoXA_lYycIl7-27" value="C2f" style="whiteSpace=wrap;html=1;fillColor=#FFE897;fontColor=#000000;fontFamily=Garamond;fontSize=14;" parent="1" vertex="1">
          <mxGeometry x="80" y="680" width="80" height="40" as="geometry" />
        </mxCell>
        <mxCell id="Kuy65lUHNoXA_lYycIl7-36" value="" style="edgeStyle=orthogonalEdgeStyle;rounded=0;orthogonalLoop=1;jettySize=auto;html=1;fontColor=#000000;fontFamily=Garamond;fontSize=14;" parent="1" source="Kuy65lUHNoXA_lYycIl7-28" target="Kuy65lUHNoXA_lYycIl7-29" edge="1">
          <mxGeometry relative="1" as="geometry" />
        </mxCell>
        <mxCell id="Kuy65lUHNoXA_lYycIl7-28" value="Conv" style="whiteSpace=wrap;html=1;fillColor=#8BE1FF;fontColor=#000000;fontFamily=Garamond;fontSize=14;" parent="1" vertex="1">
          <mxGeometry x="80" y="760" width="80" height="40" as="geometry" />
        </mxCell>
        <mxCell id="Kuy65lUHNoXA_lYycIl7-39" value="" style="edgeStyle=orthogonalEdgeStyle;rounded=0;orthogonalLoop=1;jettySize=auto;html=1;fontColor=#000000;fontFamily=Garamond;fontSize=14;" parent="1" source="Kuy65lUHNoXA_lYycIl7-29" target="Kuy65lUHNoXA_lYycIl7-30" edge="1">
          <mxGeometry relative="1" as="geometry" />
        </mxCell>
        <mxCell id="Kuy65lUHNoXA_lYycIl7-29" value="C2f" style="whiteSpace=wrap;html=1;fillColor=#FFE897;fontColor=#000000;fontFamily=Garamond;fontSize=14;" parent="1" vertex="1">
          <mxGeometry x="80" y="840" width="80" height="40" as="geometry" />
        </mxCell>
        <mxCell id="Kuy65lUHNoXA_lYycIl7-30" value="SPPF" style="whiteSpace=wrap;html=1;fillColor=#6BB8FC;fontColor=#000000;fontFamily=Garamond;fontSize=14;" parent="1" vertex="1">
          <mxGeometry x="80" y="920" width="80" height="40" as="geometry" />
        </mxCell>
        <mxCell id="Kuy65lUHNoXA_lYycIl7-49" value="" style="edgeStyle=orthogonalEdgeStyle;rounded=0;orthogonalLoop=1;jettySize=auto;html=1;fontColor=#000000;fontFamily=Garamond;fontSize=14;" parent="1" source="Kuy65lUHNoXA_lYycIl7-40" target="Kuy65lUHNoXA_lYycIl7-41" edge="1">
          <mxGeometry relative="1" as="geometry" />
        </mxCell>
        <mxCell id="Kuy65lUHNoXA_lYycIl7-40" value="UpSample" style="whiteSpace=wrap;html=1;fontColor=#000000;fillColor=#A9DA70;fontFamily=Garamond;fontSize=14;" parent="1" vertex="1">
          <mxGeometry x="300" y="560" width="80" height="40" as="geometry" />
        </mxCell>
        <mxCell id="Kuy65lUHNoXA_lYycIl7-50" value="" style="edgeStyle=orthogonalEdgeStyle;rounded=0;orthogonalLoop=1;jettySize=auto;html=1;fontColor=#000000;fontFamily=Garamond;fontSize=14;" parent="1" source="Kuy65lUHNoXA_lYycIl7-41" target="Kuy65lUHNoXA_lYycIl7-42" edge="1">
          <mxGeometry relative="1" as="geometry" />
        </mxCell>
        <mxCell id="Kuy65lUHNoXA_lYycIl7-41" value="Concat" style="whiteSpace=wrap;html=1;fontColor=#000000;fillColor=#FFCE3B;fontFamily=Garamond;fontSize=14;" parent="1" vertex="1">
          <mxGeometry x="300" y="480" width="80" height="40" as="geometry" />
        </mxCell>
        <mxCell id="Kuy65lUHNoXA_lYycIl7-62" value="" style="edgeStyle=orthogonalEdgeStyle;rounded=0;orthogonalLoop=1;jettySize=auto;html=1;fontColor=#000000;fontFamily=Garamond;fontSize=14;" parent="1" source="Kuy65lUHNoXA_lYycIl7-42" target="Kuy65lUHNoXA_lYycIl7-53" edge="1">
          <mxGeometry relative="1" as="geometry" />
        </mxCell>
        <mxCell id="Kuy65lUHNoXA_lYycIl7-42" value="C2f" style="whiteSpace=wrap;html=1;fillColor=#FFE897;fontColor=#000000;fontFamily=Garamond;fontSize=14;" parent="1" vertex="1">
          <mxGeometry x="420" y="480" width="80" height="40" as="geometry" />
        </mxCell>
        <mxCell id="Kuy65lUHNoXA_lYycIl7-46" value="" style="edgeStyle=orthogonalEdgeStyle;rounded=0;orthogonalLoop=1;jettySize=auto;html=1;fontColor=#000000;fontFamily=Garamond;fontSize=14;" parent="1" source="Kuy65lUHNoXA_lYycIl7-43" target="Kuy65lUHNoXA_lYycIl7-44" edge="1">
          <mxGeometry relative="1" as="geometry" />
        </mxCell>
        <mxCell id="Kuy65lUHNoXA_lYycIl7-43" value="UpSample" style="whiteSpace=wrap;html=1;fontColor=#000000;fillColor=#A9DA70;fontFamily=Garamond;fontSize=14;" parent="1" vertex="1">
          <mxGeometry x="300" y="800" width="80" height="40" as="geometry" />
        </mxCell>
        <mxCell id="Kuy65lUHNoXA_lYycIl7-47" value="" style="edgeStyle=orthogonalEdgeStyle;rounded=0;orthogonalLoop=1;jettySize=auto;html=1;fontColor=#000000;fontFamily=Garamond;fontSize=14;" parent="1" source="Kuy65lUHNoXA_lYycIl7-44" target="Kuy65lUHNoXA_lYycIl7-45" edge="1">
          <mxGeometry relative="1" as="geometry" />
        </mxCell>
        <mxCell id="Kuy65lUHNoXA_lYycIl7-44" value="Concat" style="whiteSpace=wrap;html=1;fontColor=#000000;fillColor=#FFCE3B;fontFamily=Garamond;fontSize=14;" parent="1" vertex="1">
          <mxGeometry x="300" y="720" width="80" height="40" as="geometry" />
        </mxCell>
        <mxCell id="Kuy65lUHNoXA_lYycIl7-48" value="" style="edgeStyle=orthogonalEdgeStyle;rounded=0;orthogonalLoop=1;jettySize=auto;html=1;fontColor=#000000;fontFamily=Garamond;fontSize=14;" parent="1" source="Kuy65lUHNoXA_lYycIl7-45" target="Kuy65lUHNoXA_lYycIl7-40" edge="1">
          <mxGeometry relative="1" as="geometry" />
        </mxCell>
        <mxCell id="Kuy65lUHNoXA_lYycIl7-67" style="edgeStyle=orthogonalEdgeStyle;rounded=0;orthogonalLoop=1;jettySize=auto;html=1;entryX=0;entryY=0.5;entryDx=0;entryDy=0;fontColor=#000000;fontFamily=Garamond;fontSize=14;" parent="1" source="Kuy65lUHNoXA_lYycIl7-45" target="Kuy65lUHNoXA_lYycIl7-51" edge="1">
          <mxGeometry relative="1" as="geometry" />
        </mxCell>
        <mxCell id="Kuy65lUHNoXA_lYycIl7-45" value="C2f" style="whiteSpace=wrap;html=1;fillColor=#FFE897;fontColor=#000000;fontFamily=Garamond;fontSize=14;" parent="1" vertex="1">
          <mxGeometry x="300" y="640" width="80" height="40" as="geometry" />
        </mxCell>
        <mxCell id="Kuy65lUHNoXA_lYycIl7-55" value="" style="edgeStyle=orthogonalEdgeStyle;rounded=0;orthogonalLoop=1;jettySize=auto;html=1;fontColor=#000000;fontFamily=Garamond;fontSize=14;" parent="1" source="Kuy65lUHNoXA_lYycIl7-51" target="Kuy65lUHNoXA_lYycIl7-52" edge="1">
          <mxGeometry relative="1" as="geometry" />
        </mxCell>
        <mxCell id="Kuy65lUHNoXA_lYycIl7-51" value="Concat" style="whiteSpace=wrap;html=1;fontColor=#000000;fillColor=#FFCE3B;fontFamily=Garamond;fontSize=14;" parent="1" vertex="1">
          <mxGeometry x="420" y="640" width="80" height="40" as="geometry" />
        </mxCell>
        <mxCell id="Kuy65lUHNoXA_lYycIl7-61" value="" style="edgeStyle=orthogonalEdgeStyle;rounded=0;orthogonalLoop=1;jettySize=auto;html=1;fontColor=#000000;fontFamily=Garamond;fontSize=14;" parent="1" source="Kuy65lUHNoXA_lYycIl7-52" target="Kuy65lUHNoXA_lYycIl7-60" edge="1">
          <mxGeometry relative="1" as="geometry" />
        </mxCell>
        <mxCell id="Kuy65lUHNoXA_lYycIl7-52" value="C2f" style="whiteSpace=wrap;html=1;fillColor=#FFE897;fontColor=#000000;fontFamily=Garamond;fontSize=14;" parent="1" vertex="1">
          <mxGeometry x="420" y="720" width="80" height="40" as="geometry" />
        </mxCell>
        <mxCell id="Kuy65lUHNoXA_lYycIl7-54" value="" style="edgeStyle=orthogonalEdgeStyle;rounded=0;orthogonalLoop=1;jettySize=auto;html=1;fontColor=#000000;fontFamily=Garamond;fontSize=14;" parent="1" source="Kuy65lUHNoXA_lYycIl7-53" target="Kuy65lUHNoXA_lYycIl7-51" edge="1">
          <mxGeometry relative="1" as="geometry" />
        </mxCell>
        <mxCell id="Kuy65lUHNoXA_lYycIl7-53" value="Conv" style="whiteSpace=wrap;html=1;fillColor=#8BE1FF;fontColor=#000000;fontFamily=Garamond;fontSize=14;" parent="1" vertex="1">
          <mxGeometry x="420" y="560" width="80" height="40" as="geometry" />
        </mxCell>
        <mxCell id="Kuy65lUHNoXA_lYycIl7-56" value="" style="edgeStyle=orthogonalEdgeStyle;rounded=0;orthogonalLoop=1;jettySize=auto;html=1;fontColor=#000000;fontFamily=Garamond;fontSize=14;" parent="1" source="Kuy65lUHNoXA_lYycIl7-57" target="Kuy65lUHNoXA_lYycIl7-58" edge="1">
          <mxGeometry relative="1" as="geometry" />
        </mxCell>
        <mxCell id="Kuy65lUHNoXA_lYycIl7-57" value="Concat" style="whiteSpace=wrap;html=1;fontColor=#000000;fillColor=#FFCE3B;fontFamily=Garamond;fontSize=14;" parent="1" vertex="1">
          <mxGeometry x="420" y="920" width="80" height="40" as="geometry" />
        </mxCell>
        <mxCell id="xLKoKzpAesTqlhvC8uQG-8" style="edgeStyle=orthogonalEdgeStyle;rounded=0;orthogonalLoop=1;jettySize=auto;html=1;" parent="1" source="Kuy65lUHNoXA_lYycIl7-58" target="xLKoKzpAesTqlhvC8uQG-7" edge="1">
          <mxGeometry relative="1" as="geometry" />
        </mxCell>
        <mxCell id="Kuy65lUHNoXA_lYycIl7-58" value="C2f" style="whiteSpace=wrap;html=1;fillColor=#FFE897;fontColor=#000000;fontFamily=Garamond;fontSize=14;" parent="1" vertex="1">
          <mxGeometry x="420" y="1000" width="80" height="40" as="geometry" />
        </mxCell>
        <mxCell id="Kuy65lUHNoXA_lYycIl7-59" value="" style="edgeStyle=orthogonalEdgeStyle;rounded=0;orthogonalLoop=1;jettySize=auto;html=1;fontColor=#000000;fontFamily=Garamond;fontSize=14;" parent="1" source="Kuy65lUHNoXA_lYycIl7-60" target="Kuy65lUHNoXA_lYycIl7-57" edge="1">
          <mxGeometry relative="1" as="geometry" />
        </mxCell>
        <mxCell id="Kuy65lUHNoXA_lYycIl7-60" value="Conv" style="whiteSpace=wrap;html=1;fillColor=#8BE1FF;fontColor=#000000;fontFamily=Garamond;fontSize=14;" parent="1" vertex="1">
          <mxGeometry x="420" y="800" width="80" height="40" as="geometry" />
        </mxCell>
        <mxCell id="Kuy65lUHNoXA_lYycIl7-80" value="" style="edgeStyle=orthogonalEdgeStyle;rounded=0;orthogonalLoop=1;jettySize=auto;html=1;fontColor=#000000;fontFamily=Garamond;fontSize=14;" parent="1" source="Kuy65lUHNoXA_lYycIl7-71" target="Kuy65lUHNoXA_lYycIl7-73" edge="1">
          <mxGeometry relative="1" as="geometry" />
        </mxCell>
        <mxCell id="Kuy65lUHNoXA_lYycIl7-71" value="Conv" style="whiteSpace=wrap;html=1;fillColor=#8BE1FF;fontColor=#000000;fontFamily=Garamond;fontSize=14;" parent="1" vertex="1">
          <mxGeometry x="640" y="920" width="80" height="40" as="geometry" />
        </mxCell>
        <mxCell id="Kuy65lUHNoXA_lYycIl7-79" value="" style="edgeStyle=orthogonalEdgeStyle;rounded=0;orthogonalLoop=1;jettySize=auto;html=1;fontColor=#000000;fontFamily=Garamond;fontSize=14;" parent="1" source="Kuy65lUHNoXA_lYycIl7-73" target="Kuy65lUHNoXA_lYycIl7-74" edge="1">
          <mxGeometry relative="1" as="geometry" />
        </mxCell>
        <mxCell id="Kuy65lUHNoXA_lYycIl7-73" value="Conv" style="whiteSpace=wrap;html=1;fillColor=#8BE1FF;fontColor=#000000;fontFamily=Garamond;fontSize=14;" parent="1" vertex="1">
          <mxGeometry x="640" y="840" width="80" height="40" as="geometry" />
        </mxCell>
        <mxCell id="Kuy65lUHNoXA_lYycIl7-78" value="" style="edgeStyle=orthogonalEdgeStyle;rounded=0;orthogonalLoop=1;jettySize=auto;html=1;fontColor=#000000;fontFamily=Garamond;fontSize=14;" parent="1" source="Kuy65lUHNoXA_lYycIl7-74" target="Kuy65lUHNoXA_lYycIl7-75" edge="1">
          <mxGeometry relative="1" as="geometry" />
        </mxCell>
        <mxCell id="Kuy65lUHNoXA_lYycIl7-74" value="Conv2d" style="whiteSpace=wrap;html=1;fontColor=#000000;fillColor=#F8CBAD;fontFamily=Garamond;fontSize=14;" parent="1" vertex="1">
          <mxGeometry x="640" y="760" width="80" height="40" as="geometry" />
        </mxCell>
        <mxCell id="Kuy65lUHNoXA_lYycIl7-81" value="Concat" style="whiteSpace=wrap;html=1;fontColor=#000000;fillColor=#FFCE3B;fontFamily=Garamond;fontSize=14;" parent="1" vertex="1">
          <mxGeometry x="640" y="520" width="320" height="40" as="geometry" />
        </mxCell>
        <mxCell id="Kuy65lUHNoXA_lYycIl7-77" value="" style="edgeStyle=orthogonalEdgeStyle;rounded=0;orthogonalLoop=1;jettySize=auto;html=1;fontColor=#000000;fontFamily=Garamond;fontSize=14;" parent="1" source="Kuy65lUHNoXA_lYycIl7-75" target="Kuy65lUHNoXA_lYycIl7-76" edge="1">
          <mxGeometry relative="1" as="geometry" />
        </mxCell>
        <mxCell id="Kuy65lUHNoXA_lYycIl7-75" value="Reshape" style="whiteSpace=wrap;html=1;fontColor=#000000;fillColor=#FF9A3B;fontFamily=Garamond;fontSize=14;" parent="1" vertex="1">
          <mxGeometry x="640" y="680" width="80" height="40" as="geometry" />
        </mxCell>
        <mxCell id="Kuy65lUHNoXA_lYycIl7-238" style="edgeStyle=orthogonalEdgeStyle;rounded=0;orthogonalLoop=1;jettySize=auto;html=1;fontFamily=Garamond;fontSize=14;" parent="1" source="Kuy65lUHNoXA_lYycIl7-76" edge="1">
          <mxGeometry relative="1" as="geometry">
            <mxPoint x="680" y="560" as="targetPoint" />
          </mxGeometry>
        </mxCell>
        <mxCell id="Kuy65lUHNoXA_lYycIl7-239" value="Existenz" style="edgeLabel;html=1;align=center;verticalAlign=middle;resizable=0;points=[];labelBackgroundColor=none;horizontal=1;fontSize=14;fontFamily=Garamond;" parent="Kuy65lUHNoXA_lYycIl7-238" vertex="1" connectable="0">
          <mxGeometry x="0.1379" relative="1" as="geometry">
            <mxPoint x="29" y="3" as="offset" />
          </mxGeometry>
        </mxCell>
        <mxCell id="Kuy65lUHNoXA_lYycIl7-76" value="Sigmoid" style="whiteSpace=wrap;html=1;fontColor=#000000;fillColor=#BBFDF9;fontFamily=Garamond;fontSize=14;" parent="1" vertex="1">
          <mxGeometry x="640" y="600" width="80" height="40" as="geometry" />
        </mxCell>
        <mxCell id="Kuy65lUHNoXA_lYycIl7-232" style="edgeStyle=orthogonalEdgeStyle;rounded=0;orthogonalLoop=1;jettySize=auto;html=1;fontFamily=Garamond;fontSize=14;" parent="1" source="Kuy65lUHNoXA_lYycIl7-81" edge="1">
          <mxGeometry relative="1" as="geometry">
            <mxPoint x="800" y="480" as="targetPoint" />
          </mxGeometry>
        </mxCell>
        <mxCell id="Kuy65lUHNoXA_lYycIl7-240" value="Output" style="edgeLabel;html=1;align=center;verticalAlign=middle;resizable=0;points=[];fontSize=14;labelBackgroundColor=none;fontFamily=Garamond;" parent="Kuy65lUHNoXA_lYycIl7-232" vertex="1" connectable="0">
          <mxGeometry x="0.3117" relative="1" as="geometry">
            <mxPoint y="-30" as="offset" />
          </mxGeometry>
        </mxCell>
        <mxCell id="Kuy65lUHNoXA_lYycIl7-84" value="" style="edgeStyle=orthogonalEdgeStyle;rounded=0;orthogonalLoop=1;jettySize=auto;html=1;fontColor=#000000;fontFamily=Garamond;fontSize=14;" parent="1" source="Kuy65lUHNoXA_lYycIl7-85" target="Kuy65lUHNoXA_lYycIl7-87" edge="1">
          <mxGeometry relative="1" as="geometry" />
        </mxCell>
        <mxCell id="Kuy65lUHNoXA_lYycIl7-85" value="Conv" style="whiteSpace=wrap;html=1;fillColor=#8BE1FF;fontColor=#000000;fontFamily=Garamond;fontSize=14;" parent="1" vertex="1">
          <mxGeometry x="760" y="920" width="80" height="40" as="geometry" />
        </mxCell>
        <mxCell id="Kuy65lUHNoXA_lYycIl7-86" value="" style="edgeStyle=orthogonalEdgeStyle;rounded=0;orthogonalLoop=1;jettySize=auto;html=1;fontColor=#000000;fontFamily=Garamond;fontSize=14;" parent="1" source="Kuy65lUHNoXA_lYycIl7-87" target="Kuy65lUHNoXA_lYycIl7-89" edge="1">
          <mxGeometry relative="1" as="geometry" />
        </mxCell>
        <mxCell id="Kuy65lUHNoXA_lYycIl7-87" value="Conv" style="whiteSpace=wrap;html=1;fillColor=#8BE1FF;fontColor=#000000;fontFamily=Garamond;fontSize=14;" parent="1" vertex="1">
          <mxGeometry x="760" y="840" width="80" height="40" as="geometry" />
        </mxCell>
        <mxCell id="Kuy65lUHNoXA_lYycIl7-88" value="" style="edgeStyle=orthogonalEdgeStyle;rounded=0;orthogonalLoop=1;jettySize=auto;html=1;fontColor=#000000;fontFamily=Garamond;fontSize=14;" parent="1" source="Kuy65lUHNoXA_lYycIl7-89" target="Kuy65lUHNoXA_lYycIl7-91" edge="1">
          <mxGeometry relative="1" as="geometry" />
        </mxCell>
        <mxCell id="Kuy65lUHNoXA_lYycIl7-89" value="Conv2d" style="whiteSpace=wrap;html=1;fontColor=#000000;fillColor=#F8CBAD;fontFamily=Garamond;fontSize=14;" parent="1" vertex="1">
          <mxGeometry x="760" y="760" width="80" height="40" as="geometry" />
        </mxCell>
        <mxCell id="Kuy65lUHNoXA_lYycIl7-90" value="" style="edgeStyle=orthogonalEdgeStyle;rounded=0;orthogonalLoop=1;jettySize=auto;html=1;fontColor=#000000;fontFamily=Garamond;fontSize=14;" parent="1" source="Kuy65lUHNoXA_lYycIl7-91" target="Kuy65lUHNoXA_lYycIl7-92" edge="1">
          <mxGeometry relative="1" as="geometry" />
        </mxCell>
        <mxCell id="Kuy65lUHNoXA_lYycIl7-91" value="Reshape" style="whiteSpace=wrap;html=1;fontColor=#000000;fillColor=#FF9A3B;fontFamily=Garamond;fontSize=14;" parent="1" vertex="1">
          <mxGeometry x="760" y="680" width="80" height="40" as="geometry" />
        </mxCell>
        <mxCell id="Kuy65lUHNoXA_lYycIl7-104" value="" style="edgeStyle=orthogonalEdgeStyle;rounded=0;orthogonalLoop=1;jettySize=auto;html=1;fontFamily=Garamond;fontSize=14;" parent="1" source="Kuy65lUHNoXA_lYycIl7-92" target="Kuy65lUHNoXA_lYycIl7-81" edge="1">
          <mxGeometry relative="1" as="geometry" />
        </mxCell>
        <mxCell id="Kuy65lUHNoXA_lYycIl7-108" value="Position" style="edgeLabel;html=1;align=center;verticalAlign=middle;resizable=0;points=[];labelBackgroundColor=none;horizontal=1;fontSize=14;fontFamily=Garamond;" parent="Kuy65lUHNoXA_lYycIl7-104" vertex="1" connectable="0">
          <mxGeometry x="0.1187" y="1" relative="1" as="geometry">
            <mxPoint x="29" y="2" as="offset" />
          </mxGeometry>
        </mxCell>
        <mxCell id="Kuy65lUHNoXA_lYycIl7-92" value="Sigmoid" style="whiteSpace=wrap;html=1;fontColor=#000000;fillColor=#BBFDF9;fontFamily=Garamond;fontSize=14;" parent="1" vertex="1">
          <mxGeometry x="760" y="600" width="80" height="40" as="geometry" />
        </mxCell>
        <mxCell id="Kuy65lUHNoXA_lYycIl7-93" value="" style="edgeStyle=orthogonalEdgeStyle;rounded=0;orthogonalLoop=1;jettySize=auto;html=1;fontColor=#000000;fontFamily=Garamond;fontSize=14;" parent="1" source="Kuy65lUHNoXA_lYycIl7-94" target="Kuy65lUHNoXA_lYycIl7-96" edge="1">
          <mxGeometry relative="1" as="geometry" />
        </mxCell>
        <mxCell id="Kuy65lUHNoXA_lYycIl7-94" value="Conv" style="whiteSpace=wrap;html=1;fillColor=#8BE1FF;fontColor=#000000;fontFamily=Garamond;fontSize=14;" parent="1" vertex="1">
          <mxGeometry x="880" y="920" width="80" height="40" as="geometry" />
        </mxCell>
        <mxCell id="Kuy65lUHNoXA_lYycIl7-95" value="" style="edgeStyle=orthogonalEdgeStyle;rounded=0;orthogonalLoop=1;jettySize=auto;html=1;fontColor=#000000;fontFamily=Garamond;fontSize=14;" parent="1" source="Kuy65lUHNoXA_lYycIl7-96" target="Kuy65lUHNoXA_lYycIl7-98" edge="1">
          <mxGeometry relative="1" as="geometry" />
        </mxCell>
        <mxCell id="Kuy65lUHNoXA_lYycIl7-96" value="Conv" style="whiteSpace=wrap;html=1;fillColor=#8BE1FF;fontColor=#000000;fontFamily=Garamond;fontSize=14;" parent="1" vertex="1">
          <mxGeometry x="880" y="840" width="80" height="40" as="geometry" />
        </mxCell>
        <mxCell id="Kuy65lUHNoXA_lYycIl7-97" value="" style="edgeStyle=orthogonalEdgeStyle;rounded=0;orthogonalLoop=1;jettySize=auto;html=1;fontColor=#000000;fontFamily=Garamond;fontSize=14;" parent="1" source="Kuy65lUHNoXA_lYycIl7-98" target="Kuy65lUHNoXA_lYycIl7-100" edge="1">
          <mxGeometry relative="1" as="geometry" />
        </mxCell>
        <mxCell id="Kuy65lUHNoXA_lYycIl7-98" value="Conv2d" style="whiteSpace=wrap;html=1;fontColor=#000000;fillColor=#F8CBAD;fontFamily=Garamond;fontSize=14;" parent="1" vertex="1">
          <mxGeometry x="880" y="760" width="80" height="40" as="geometry" />
        </mxCell>
        <mxCell id="Kuy65lUHNoXA_lYycIl7-100" value="Reshape" style="whiteSpace=wrap;html=1;fontColor=#000000;fillColor=#FF9A3B;fontFamily=Garamond;fontSize=14;" parent="1" vertex="1">
          <mxGeometry x="880" y="680" width="80" height="40" as="geometry" />
        </mxCell>
        <mxCell id="Kuy65lUHNoXA_lYycIl7-103" style="edgeStyle=orthogonalEdgeStyle;rounded=0;orthogonalLoop=1;jettySize=auto;html=1;entryX=0.876;entryY=1.012;entryDx=0;entryDy=0;entryPerimeter=0;fontFamily=Garamond;fontSize=14;" parent="1" source="Kuy65lUHNoXA_lYycIl7-100" target="Kuy65lUHNoXA_lYycIl7-81" edge="1">
          <mxGeometry relative="1" as="geometry" />
        </mxCell>
        <mxCell id="Kuy65lUHNoXA_lYycIl7-109" value="Klasse" style="edgeLabel;html=1;align=center;verticalAlign=middle;resizable=0;points=[];labelBackgroundColor=none;horizontal=1;fontSize=14;fontFamily=Garamond;" parent="Kuy65lUHNoXA_lYycIl7-103" vertex="1" connectable="0">
          <mxGeometry x="0.292" relative="1" as="geometry">
            <mxPoint x="24" y="-23" as="offset" />
          </mxGeometry>
        </mxCell>
        <mxCell id="Xc5o_W9a4rZVm5dtzrcJ-1" value="1" style="whiteSpace=wrap;html=1;opacity=75;" parent="1" vertex="1">
          <mxGeometry x="180" y="1060" width="20" height="20" as="geometry" />
        </mxCell>
        <mxCell id="Xc5o_W9a4rZVm5dtzrcJ-2" value="2" style="whiteSpace=wrap;html=1;opacity=75;" parent="1" vertex="1">
          <mxGeometry x="520" y="1060" width="20" height="20" as="geometry" />
        </mxCell>
        <mxCell id="Xc5o_W9a4rZVm5dtzrcJ-3" value="3" style="whiteSpace=wrap;html=1;opacity=75;" parent="1" vertex="1">
          <mxGeometry x="980" y="1060" width="20" height="20" as="geometry" />
        </mxCell>
        <mxCell id="xLKoKzpAesTqlhvC8uQG-23" style="edgeStyle=orthogonalEdgeStyle;rounded=0;orthogonalLoop=1;jettySize=auto;html=1;" parent="1" source="xLKoKzpAesTqlhvC8uQG-7" target="Kuy65lUHNoXA_lYycIl7-71" edge="1">
          <mxGeometry relative="1" as="geometry" />
        </mxCell>
        <mxCell id="xLKoKzpAesTqlhvC8uQG-24" style="edgeStyle=orthogonalEdgeStyle;rounded=0;orthogonalLoop=1;jettySize=auto;html=1;" parent="1" source="xLKoKzpAesTqlhvC8uQG-7" target="Kuy65lUHNoXA_lYycIl7-85" edge="1">
          <mxGeometry relative="1" as="geometry" />
        </mxCell>
        <mxCell id="xLKoKzpAesTqlhvC8uQG-25" style="edgeStyle=orthogonalEdgeStyle;rounded=0;orthogonalLoop=1;jettySize=auto;html=1;" parent="1" source="xLKoKzpAesTqlhvC8uQG-7" target="Kuy65lUHNoXA_lYycIl7-94" edge="1">
          <mxGeometry relative="1" as="geometry" />
        </mxCell>
        <mxCell id="xLKoKzpAesTqlhvC8uQG-7" value="Transition-&lt;div&gt;Block&lt;/div&gt;" style="whiteSpace=wrap;html=1;fillColor=#FFE6CC;fontColor=#000000;fontFamily=Garamond;fontSize=14;" parent="1" vertex="1">
          <mxGeometry x="530" y="1000" width="80" height="40" as="geometry" />
        </mxCell>
        <mxCell id="xLKoKzpAesTqlhvC8uQG-15" value="" style="edgeStyle=orthogonalEdgeStyle;rounded=0;orthogonalLoop=1;jettySize=auto;html=1;" parent="1" source="Kuy65lUHNoXA_lYycIl7-30" target="xLKoKzpAesTqlhvC8uQG-12" edge="1">
          <mxGeometry relative="1" as="geometry">
            <mxPoint x="160" y="940" as="sourcePoint" />
            <mxPoint x="280" y="940" as="targetPoint" />
          </mxGeometry>
        </mxCell>
        <mxCell id="xLKoKzpAesTqlhvC8uQG-21" style="edgeStyle=orthogonalEdgeStyle;rounded=0;orthogonalLoop=1;jettySize=auto;html=1;" parent="1" source="xLKoKzpAesTqlhvC8uQG-12" target="Kuy65lUHNoXA_lYycIl7-57" edge="1">
          <mxGeometry relative="1" as="geometry" />
        </mxCell>
        <mxCell id="xLKoKzpAesTqlhvC8uQG-22" style="edgeStyle=orthogonalEdgeStyle;rounded=0;orthogonalLoop=1;jettySize=auto;html=1;" parent="1" source="xLKoKzpAesTqlhvC8uQG-12" target="Kuy65lUHNoXA_lYycIl7-43" edge="1">
          <mxGeometry relative="1" as="geometry" />
        </mxCell>
        <mxCell id="xLKoKzpAesTqlhvC8uQG-12" value="Transition-&lt;div&gt;Block&lt;/div&gt;" style="whiteSpace=wrap;html=1;fillColor=#FFE6CC;fontColor=#000000;fontFamily=Garamond;fontSize=14;" parent="1" vertex="1">
          <mxGeometry x="190" y="920" width="80" height="40" as="geometry" />
        </mxCell>
        <mxCell id="uZDJ5fAOK-fkMPtMEkf_-2" value="25" style="whiteSpace=wrap;html=1;opacity=75;rounded=0;" vertex="1" parent="1">
          <mxGeometry x="105" y="810" width="30" height="15" as="geometry" />
        </mxCell>
        <mxCell id="uZDJ5fAOK-fkMPtMEkf_-5" value="50" style="whiteSpace=wrap;html=1;opacity=75;rounded=0;" vertex="1" parent="1">
          <mxGeometry x="325" y="775" width="30" height="15" as="geometry" />
        </mxCell>
        <mxCell id="uZDJ5fAOK-fkMPtMEkf_-6" value="25" style="whiteSpace=wrap;html=1;opacity=75;rounded=0;" vertex="1" parent="1">
          <mxGeometry x="445" y="855" width="30" height="15" as="geometry" />
        </mxCell>
        <mxCell id="uZDJ5fAOK-fkMPtMEkf_-7" value="50" style="whiteSpace=wrap;html=1;opacity=75;rounded=0;" vertex="1" parent="1">
          <mxGeometry x="105" y="650" width="30" height="15" as="geometry" />
        </mxCell>
        <mxCell id="uZDJ5fAOK-fkMPtMEkf_-8" value="100" style="whiteSpace=wrap;html=1;opacity=75;rounded=0;" vertex="1" parent="1">
          <mxGeometry x="105" y="490" width="30" height="15" as="geometry" />
        </mxCell>
        <mxCell id="uZDJ5fAOK-fkMPtMEkf_-9" value="800" style="whiteSpace=wrap;html=1;opacity=75;rounded=0;" vertex="1" parent="1">
          <mxGeometry x="105" y="170" width="30" height="15" as="geometry" />
        </mxCell>
        <mxCell id="uZDJ5fAOK-fkMPtMEkf_-10" value="200" style="whiteSpace=wrap;html=1;opacity=75;rounded=0;" vertex="1" parent="1">
          <mxGeometry x="105" y="330" width="30" height="15" as="geometry" />
        </mxCell>
        <mxCell id="uZDJ5fAOK-fkMPtMEkf_-11" value="400" style="whiteSpace=wrap;html=1;opacity=75;rounded=0;" vertex="1" parent="1">
          <mxGeometry x="105" y="250" width="30" height="15" as="geometry" />
        </mxCell>
        <mxCell id="uZDJ5fAOK-fkMPtMEkf_-12" value="50" style="whiteSpace=wrap;html=1;opacity=75;rounded=0;" vertex="1" parent="1">
          <mxGeometry x="445" y="611" width="30" height="15" as="geometry" />
        </mxCell>
        <mxCell id="uZDJ5fAOK-fkMPtMEkf_-14" value="100" style="whiteSpace=wrap;html=1;opacity=75;rounded=0;" vertex="1" parent="1">
          <mxGeometry x="325" y="535" width="30" height="15" as="geometry" />
        </mxCell>
        <mxCell id="uZDJ5fAOK-fkMPtMEkf_-15" value="25" style="whiteSpace=wrap;html=1;opacity=75;rounded=0;" vertex="1" parent="1">
          <mxGeometry x="785" y="495" width="30" height="15" as="geometry" />
        </mxCell>
      </root>
    </mxGraphModel>
  </diagram>
</mxfile>
